<svg width="60" height="42" viewBox="0 0 60 42" fill="none" xmlns="http://www.w3.org/2000/svg">
<g clip-path="url(#clip0_1202_801)">
<path d="M0.0400093 22.79C0.840009 34.17 14.79 42.47 31.21 41.32C47.63 40.17 60.29 30.01 59.5 18.63C58.7 7.25 44.74 -1.04 28.32 0.110001C11.9 1.25 -0.759991 11.41 0.0400093 22.79Z" fill="black"/>
<path d="M15.69 18.79C15.66 20.22 14.82 22.17 13.81 22.15C13.33 22.15 12.91 21.75 12.93 20.89C12.96 19.46 13.88 17.57 14.89 17.59C15.37 17.59 15.7 17.96 15.69 18.78M11.84 26.9C13.2 26.31 15.41 26.27 15.82 27.23C16.02 27.69 15.82 28.25 15.01 28.6C13.65 29.19 11.47 29.13 11.05 28.16C10.85 27.7 11.05 27.23 11.84 26.89M18.95 17.52C19.1 17.27 19.76 16.57 19.73 16.29C19.65 15.64 18.76 16.06 17.16 16.06H15.58C12.42 16.06 10.47 17.91 10.47 20.31C10.47 22.35 11.78 23.68 11.78 24.33C11.78 24.62 11.47 24.79 11.04 24.96C9.45999 25.59 8.42999 26.37 8.42999 27.78C8.42999 29.67 10.3 31 13.29 31C15.9 31 18.63 29.17 18.63 26.85C18.63 25.67 17.75 25.02 16.63 24.58C15.77 24.24 15.18 23.99 15.18 23.61C15.18 23 16.61 22.77 17.68 20.98C18.35 19.91 18.48 18.27 18.94 17.51M25.46 19.37C25.46 21.34 24.6 24.92 23.06 24.92C22.26 24.92 22.09 23.97 22.09 23.01C22.09 20.95 22.95 17.57 24.49 17.57C25.22 17.57 25.46 18.33 25.46 19.38M28.67 19.53C28.67 16.67 26.57 16.11 25.04 16.11C21.15 16.11 18.86 19.98 18.86 22.89C18.86 25.8 20.94 26.4 22.58 26.4C26.93 26.4 28.67 22.07 28.67 19.53ZM32.05 20.62C32.05 17.49 34.78 14.09 34.78 11.29C34.78 10.43 34.19 9.8 33.02 9.8C31.97 9.8 30.65 10.3 30.65 10.91C30.65 11.37 31.41 11.88 31.41 13.7C31.41 18.15 28.83 21.51 28.83 24.77C28.83 25.8 29.27 26.39 30.03 26.39C31.21 26.39 33.31 24.73 33.31 23.7C33.31 23.2 32.07 22.61 32.07 20.61M40.93 18.91C40.93 20.95 39.73 24.22 38.14 24.22C37.34 24.22 37.17 23.53 37.17 22.62C37.17 20.5 38.33 17.33 39.98 17.33C40.67 17.33 40.92 17.98 40.92 18.91M42.77 21.54C42.77 17.23 45.48 13.66 45.48 11.23C45.48 10.43 45 9.8 43.95 9.8C42.44 9.8 41.43 10.3 41.43 10.91C41.43 11.37 42.33 11.88 42.33 13.51C42.33 14.98 41.68 16.09 40.42 16.09C36.98 16.09 34.1 20.19 34.1 23.4C34.1 25.63 35.47 26.38 36.66 26.38C38.32 26.38 39.12 24.89 39.77 24.89C40.42 24.89 39.88 26.36 41.24 26.36C42.6 26.36 44.12 24.74 44.12 23.88C44.12 23.79 44.09 23.69 44.04 23.62C43.99 23.54 43.91 23.48 43.82 23.44C43.13 23.15 42.77 22.79 42.77 21.53M48.5 16.09C47.43 16.09 45.77 16.45 45.77 17.2C45.77 17.95 46.8 18.27 46.8 20.03C46.8 22.68 44.78 23.45 44.78 25.05C44.78 25.83 45.26 26.37 46.04 26.37C47.26 26.37 49.51 24.94 49.51 23.81C49.51 23.22 48.63 23.05 48.63 21.92C48.63 20.51 49.83 18.92 49.83 17.3C49.83 16.65 49.47 16.08 48.51 16.08M51.05 13.05C50.64 12.09 48.43 12.13 47.07 12.72C46.29 13.06 46.09 13.52 46.28 13.98C46.69 14.94 48.87 15 50.24 14.42C51.06 14.07 51.25 13.51 51.05 13.05Z" fill="white"/>
</g>
<defs>
<clipPath id="clip0_1202_801">
<rect width="59.53" height="41.43" fill="white"/>
</clipPath>
</defs>
</svg>
